<svg xmlns="http://www.w3.org/2000/svg" viewBox="0 0 32 32">
  <path fill="#FFFFFF" d="M16.003 2.004c-7.731 0-14 6.269-14 14 0 2.47.647 4.883 1.879 7.02L2 30l7.161-1.853A13.935 13.935 0 0 0 16.003 30c7.731 0 14-6.269 14-14s-6.269-13.996-14-13.996zm0 25.486a11.46 11.46 0 0 1-5.846-1.598l-.42-.25-4.248 1.099 1.132-4.137-.275-.425a11.47 11.47 0 0 1-1.779-6.175c0-6.346 5.168-11.514 11.436-11.514 6.27 0 11.436 5.168 11.436 11.514 0 6.346-5.166 11.486-11.436 11.486zm6.272-8.608c-.344-.173-2.036-1.004-2.352-1.12-.316-.114-.547-.173-.779.173-.231.345-.893 1.12-1.095 1.35-.202.231-.404.259-.748.086-.344-.173-1.454-.536-2.768-1.709-1.023-.913-1.713-2.04-1.915-2.384-.202-.345-.021-.531.152-.703.155-.155.345-.404.518-.604.173-.202.231-.345.345-.575.114-.231.057-.432-.029-.604-.086-.173-.779-1.88-1.066-2.575-.279-.671-.562-.58-.779-.591l-.662-.012c-.231 0-.604.086-.921.432-.316.345-1.209 1.18-1.209 2.88 0 1.699 1.238 3.345 1.411 3.575.173.231 2.437 3.728 5.903 5.225.824.356 1.467.569 1.968.728.827.263 1.581.226 2.176.137.664-.099 2.036-.832 2.323-1.636.287-.804.287-1.493.202-1.636-.086-.144-.316-.231-.66-.404z"/>
</svg>
